# xmcd
#
# Track frame offsets: 
#        150
#        11517
#        22512
#        33151
#        45885
#        58433
#        69611
#        81342
#        92445
#        103349
#        114339
#        126702
#        137444
#        146788
#        157671
#        169889
#        180352
#        189325
#        198805
#        210006
#        219920
#        229005
#        240308
#        250800
#        263897
#        274038
#        284301
#        295626
#        304813
#
# Disc length: 4225 seconds
#
# Revision: 0
# Processed by: cddbd v1.5.2PL0 Copyright (c) Steve Scherf et al.
# Submitted via: ExactAudioCopy v1.0b3
#
DISCID=82107f1d
DTITLE=Porter Wagoner - The First Ten Years 1952-62_CD2
DYEAR=2015
DGENRE=Country
TTITLE0=Settin' The Woods On Fire
TTITLE1=Headin' For A Weddin'
TTITLE2=Bringin' Home The Bacon
TTITLE3=An Angel Made Of Ice
TTITLE4=Don't Play That Song
TTITLE5=Love At First Sight
TTITLE6=Be Glad You Ain't Me
TTITLE7=Itchin' For My Baby
TTITLE8=Eat, Drink And Be Merry (Tomorrow You'll Cry)
TTITLE9=Let's Squiggle
TTITLE10=What Would You Do (If Jesus Came To Your House)
TTITLE11=How Can I Refuse Him Now
TTITLE12=Trying To Forget The Blues
TTITLE13=I've Known You From Somewhere
TTITLE14=Who Will He Be
TTITLE15=Good Mornin' Neighbor
TTITLE16=Payday
TTITLE17=Tell Her Lies And Feed Her Candy
TTITLE18=Haven't You Heard
TTITLE19=Out Of Sight, Out Of Mind
TTITLE20=Me And Fred And Joe And Bill
TTITLE21=The Girl Who Didn't Need Love
TTITLE22=Falling Again
TTITLE23=An Old Log Cabin For Sale
TTITLE24=Your Old Love Letters
TTITLE25=Everything She Touches Gets The Blues
TTITLE26=Cold Dark Waters
TTITLE27=Ain't It Awful
TTITLE28=I've Enjoyed As Much Of This As I Can Stand
EXTD=
EXTT0=
EXTT1=
EXTT2=
EXTT3=
EXTT4=
EXTT5=
EXTT6=
EXTT7=
EXTT8=
EXTT9=
EXTT10=
EXTT11=
EXTT12=
EXTT13=
EXTT14=
EXTT15=
EXTT16=
EXTT17=
EXTT18=
EXTT19=
EXTT20=
EXTT21=
EXTT22=
EXTT23=
EXTT24=
EXTT25=
EXTT26=
EXTT27=
EXTT28=
PLAYORDER=
